<svg xmlns="http://www.w3.org/2000/svg" version="1.1" xmlns:xlink="http://www.w3.org/1999/xlink" xmlns:svgjs="http://svgjs.com/svgjs" width="512" height="512" x="0" y="0" viewBox="0 0 512.032 512.032" style="enable-background:new 0 0 512 512" xml:space="preserve" class=""><g><g xmlns="http://www.w3.org/2000/svg"><path d="m252.28 311.333c-2.335 2.335-5.441 3.622-8.744 3.622-6.818 0-12.366-5.547-12.366-12.366 0-4.142-3.358-7.5-7.5-7.5s-7.5 3.358-7.5 7.5c0 15.089 12.276 27.366 27.366 27.366 7.31 0 14.182-2.847 19.35-8.015 2.929-2.929 2.929-7.678 0-10.606-2.928-2.93-7.677-2.93-10.606-.001z" fill="#000000" data-original="#000000"></path><path d="m351.771 368.091h-20.208c-12.108 0-22.351 8.11-25.6 19.181h-31.393c-13.785 0-27.169-4.763-37.899-13.129 20.903-.947 40.475-12.326 51.621-30.039 9.043-14.371 9.741-29.961 10.496-46.338.079-1.717 1.173-3.207 2.788-3.797l23.605-8.627c11.956-4.37 16.774-19.382 9.586-29.894l-33.293-48.689c-8.772-12.866-5.518-26.66-3.612-40.887h8.346c42.128 0 76.838-33.801 77.375-75.349.542-42.055-34.323-77.362-76.349-77.362h-151.091c-1.204-7.2-7.462-12.711-14.999-12.711h-36.199c-8.106 0-14.734 6.373-15.181 14.37-31.45 3.979-53.986 15.575-68.752 35.344-22.947 30.722-27.05 80.588-12.549 152.417 1.127 5.705 2.152 12.688 3.238 20.083 5.191 35.365 11.346 92.715 54.586 101.462-.845 33.003-9.622 63.517-18.475 94.934-20.905 2.838-37.074 20.793-37.074 42.464v42.557c0 4.142 3.358 7.5 7.5 7.5h24.293c4.142 0 7.5-3.358 7.5-7.5s-3.358-7.5-7.5-7.5h-16.793v-35.057c0-15.365 12.5-27.866 27.866-27.866h139.721c10.633 0 20.487 6.19 25.104 15.77l22.721 47.153h-163.452c-4.142 0-7.5 3.358-7.5 7.5s3.358 7.5 7.5 7.5h175.391c2.58 0 4.979-1.326 6.351-3.51 1.372-2.185 1.525-4.921.405-7.246l-27.904-57.909c-5.747-11.926-16.772-20.432-29.438-23.244l5.629-24.598c1.508-6.711 5.353-12.652 11.119-16.485 14.326 14.948 34.463 23.682 55.318 23.682h31.392c3.249 11.071 13.492 19.181 25.6 19.181h20.208c14.712 0 26.681-11.969 26.681-26.681s-11.967-26.68-26.679-26.68zm-62.646-152.818 33.26 48.641c1.784 2.609.615 6.254-2.354 7.338l-23.604 8.627c-7.311 2.671-12.265 9.421-12.623 17.196-.593 12.858-.49 25.511-7.051 37.088-8.713 15.376-25.398 25.051-43.061 25.051-3.396 0-6.764.432-10.025 1.254l-64.597-83.844c11.231-2.87 19.56-13.073 19.56-25.185v-79.71c0-2.015-.238-3.974-.674-5.858h104.771c-2.333 17.422-4.498 33.951 6.398 49.402zm-179.983 47.159v-52.023c0-.982.799-1.781 1.781-1.781h24.242c.982 0 1.781.799 1.781 1.781v52.023zm26.023-68.804h-24.242c-9.253 0-16.781 7.528-16.781 16.781v52.023c-6.213.282-11.684-4.687-11.684-10.992v-79.71c0-6.061 4.931-10.992 10.992-10.992h59.187c6.061 0 10.992 4.931 10.992 10.992v79.71c0 6.306-5.471 11.274-11.684 10.992v-52.023c.001-9.254-7.527-16.781-16.78-16.781zm-19.99-87.099h15.74v39.208h-15.74zm-10.454-90.855h36.648v23.842c0 4.142 3.358 7.5 7.5 7.5s7.5-3.358 7.5-7.5v-11.355h150.865c33.751 0 61.786 28.424 61.35 62.168-.432 33.383-28.414 60.542-62.376 60.542h-138.079c-6.661-4.96-14.319-5.134-22.214-5.134v-39.208c4.892.582 10.454-1.769 10.454-7.5v-24.013c0-4.142-3.358-7.5-7.5-7.5s-7.5 3.358-7.5 7.5v16.513h-36.648zm-78.18 204.812c-1.113-7.583-2.165-14.744-3.369-20.842-13.425-66.501-10.108-113.773 9.858-140.505 12.086-16.18 30.225-25.557 56.691-29.191v69.082c0 5.579 5.573 8.141 10.454 7.5v39.208c-16.23 0-32.716 6.916-32.716 25.992v79.71c0 14.332 11.66 25.992 25.992 25.992h.785v12.177c0 11.225-9.132 20.356-20.356 20.356-38.27.001-43.444-62.948-47.339-89.479zm181.259 147.917c-7.279 5.905-12.357 14.209-14.304 23.388l-6.149 26.868h-123.837c8.806-31.251 16.979-61.661 17.78-94.481 15.949-3.416 27.946-17.615 27.946-34.569v-12.177h31.521l68.965 89.513c-.653.469-1.297.95-1.922 1.458zm143.971 38.049h-20.208c-6.441 0-11.681-5.24-11.681-11.681s5.24-11.681 11.681-11.681h20.208c6.441 0 11.681 5.24 11.681 11.681s-5.24 11.681-11.681 11.681z" fill="#000000" data-original="#000000"></path><path d="m485.203 204.088h-89.787c-14.793 0-26.828 12.035-26.828 26.828v24.933c0 4.142 3.358 7.5 7.5 7.5s7.5-3.358 7.5-7.5v-24.933c0-6.522 5.306-11.828 11.828-11.828h89.787c6.522 0 11.828 5.306 11.828 11.828v79.45c0 6.522-5.306 11.828-11.828 11.828h-136.18l31.66-24.54c3.274-2.538 3.871-7.249 1.333-10.522-2.537-3.274-7.249-3.871-10.522-1.333l-36.435 28.241c-9.504 7.368-4.111 23.154 7.923 23.154h142.221c14.793 0 26.828-12.035 26.828-26.828v-79.45c.001-14.793-12.035-26.828-26.828-26.828z" fill="#000000" data-original="#000000"></path><path d="m415.136 263.221h51.377c4.142 0 7.5-3.358 7.5-7.5s-3.358-7.5-7.5-7.5h-51.377c-4.142 0-7.5 3.358-7.5 7.5s3.358 7.5 7.5 7.5z" fill="#000000" data-original="#000000"></path><path d="m415.136 296.996h51.377c4.142 0 7.5-3.358 7.5-7.5s-3.358-7.5-7.5-7.5h-51.377c-4.142 0-7.5 3.358-7.5 7.5s3.358 7.5 7.5 7.5z" fill="#000000" data-original="#000000"></path></g></g></svg>